%TF.GenerationSoftware,KiCad,Pcbnew,7.0.2*%
%TF.CreationDate,2024-04-17T07:58:50+08:00*%
%TF.ProjectId,HEC1,48454331-2e6b-4696-9361-645f70636258,rev?*%
%TF.SameCoordinates,Original*%
%TF.FileFunction,Plated,1,2,PTH,Mixed*%
%TF.FilePolarity,Positive*%
%FSLAX46Y46*%
G04 Gerber Fmt 4.6, Leading zero omitted, Abs format (unit mm)*
G04 Created by KiCad (PCBNEW 7.0.2) date 2024-04-17 07:58:50*
%MOMM*%
%LPD*%
G01*
G04 APERTURE LIST*
%TA.AperFunction,ViaDrill*%
%ADD10C,0.400000*%
%TD*%
%TA.AperFunction,ComponentDrill*%
%ADD11C,0.500000*%
%TD*%
%TA.AperFunction,ComponentDrill*%
%ADD12C,0.762000*%
%TD*%
%TA.AperFunction,ComponentDrill*%
%ADD13C,0.800000*%
%TD*%
%TA.AperFunction,ComponentDrill*%
%ADD14C,0.850000*%
%TD*%
%TA.AperFunction,ComponentDrill*%
%ADD15C,0.900000*%
%TD*%
%TA.AperFunction,ComponentDrill*%
%ADD16C,1.000000*%
%TD*%
G04 aperture for slot hole*
%TA.AperFunction,ComponentDrill*%
%ADD17O,1.000000X3.000000*%
%TD*%
G04 aperture for slot hole*
%TA.AperFunction,ComponentDrill*%
%ADD18O,3.000000X1.000000*%
%TD*%
G04 aperture for slot hole*
%TA.AperFunction,ComponentDrill*%
%ADD19O,3.500000X1.000000*%
%TD*%
G04 aperture for slot hole*
%TA.AperFunction,ComponentDrill*%
%ADD20O,2.000000X1.000000*%
%TD*%
G04 aperture for slot hole*
%TA.AperFunction,ComponentDrill*%
%ADD21O,1.000000X2.500000*%
%TD*%
%TA.AperFunction,ComponentDrill*%
%ADD22C,1.100000*%
%TD*%
%TA.AperFunction,ComponentDrill*%
%ADD23C,1.400000*%
%TD*%
%TA.AperFunction,ComponentDrill*%
%ADD24C,1.473200*%
%TD*%
%TA.AperFunction,ComponentDrill*%
%ADD25C,3.200000*%
%TD*%
%TA.AperFunction,ComponentDrill*%
%ADD26C,3.200000*%
%TD*%
%TA.AperFunction,ComponentDrill*%
%ADD27C,4.165600*%
%TD*%
G04 APERTURE END LIST*
D10*
X47752000Y-148844000D03*
X50800000Y-106680000D03*
X55880000Y-143510000D03*
X55880000Y-148612500D03*
X57150000Y-130810000D03*
X59690000Y-119380000D03*
X60960000Y-120650000D03*
X60960000Y-178816000D03*
X63500000Y-102870000D03*
X63500000Y-175260000D03*
X63522500Y-148612500D03*
X64770000Y-147320000D03*
X67310000Y-113030000D03*
X68580000Y-115547500D03*
X68580000Y-175260000D03*
X74930000Y-119359500D03*
X77470000Y-118851500D03*
X80187503Y-144780000D03*
X81280000Y-142240000D03*
X83820000Y-107950000D03*
X85090000Y-166370000D03*
X88900000Y-109220000D03*
X88900000Y-143510000D03*
X88900000Y-158750000D03*
X90170000Y-152400000D03*
X90170000Y-156210000D03*
X90170000Y-163830000D03*
X90170000Y-189230000D03*
X91440000Y-146027500D03*
X91440000Y-154940000D03*
X95250000Y-118132500D03*
X96520000Y-109220000D03*
X99060000Y-143510000D03*
X103124000Y-118343500D03*
X104094688Y-138221312D03*
X104140000Y-118851500D03*
X104140000Y-152400000D03*
X105410000Y-156210000D03*
X105410000Y-163830000D03*
X105897500Y-137668000D03*
X106680000Y-153670000D03*
X106680000Y-158750000D03*
X107950000Y-176530000D03*
X110490000Y-121920000D03*
X111760000Y-135890000D03*
X112903000Y-122047000D03*
X113030000Y-146050000D03*
X113030000Y-153670000D03*
X113030000Y-157480000D03*
X113030000Y-160020000D03*
X113792001Y-144780000D03*
X114021064Y-151408936D03*
X114300000Y-121920000D03*
X114300000Y-123190000D03*
X114300000Y-124460000D03*
X114300000Y-156210000D03*
X115570000Y-113030000D03*
X115824000Y-110490000D03*
X116332000Y-149860000D03*
X116840000Y-127000000D03*
X118110000Y-113030000D03*
X118892500Y-120121500D03*
X119380000Y-69850000D03*
X119380000Y-144780000D03*
X119380000Y-146050000D03*
X119380000Y-149860000D03*
X119380000Y-160020000D03*
X119380000Y-171450000D03*
X119380000Y-175260000D03*
X119473447Y-119237864D03*
X119888000Y-142727500D03*
X120396000Y-133096000D03*
X120862497Y-137160000D03*
X121920000Y-115570000D03*
X121920000Y-137160000D03*
X122428000Y-139700000D03*
X122936000Y-171920500D03*
X123190000Y-151130000D03*
X123190000Y-179070000D03*
X123210500Y-141752500D03*
X123485000Y-111760000D03*
X124460000Y-116840000D03*
X124460000Y-124460000D03*
X124460000Y-180340000D03*
X124460000Y-191770000D03*
X124968000Y-175260000D03*
X125730000Y-93980000D03*
X125730000Y-154940000D03*
X125730000Y-180340000D03*
X126012500Y-110236000D03*
X127000000Y-176530000D03*
X127000000Y-181610000D03*
X128016000Y-127000000D03*
X128232500Y-112268000D03*
X128270000Y-191770000D03*
X131064000Y-92710000D03*
X131297500Y-158727500D03*
X131572000Y-121920000D03*
X131572000Y-154940000D03*
X131592500Y-177800000D03*
X132080000Y-69850000D03*
X132080000Y-90170000D03*
X132080000Y-119380000D03*
X132080000Y-152400000D03*
X132588000Y-87630000D03*
X132588000Y-116840000D03*
X132588000Y-149860000D03*
X133096000Y-114300000D03*
X133096000Y-147320000D03*
X133329500Y-85090000D03*
X133604000Y-79756000D03*
X133604000Y-82296000D03*
X133604000Y-111760000D03*
X133604000Y-144780000D03*
X134112000Y-109220000D03*
X134112000Y-142240000D03*
X134620000Y-76200000D03*
X134620000Y-106680000D03*
X134620000Y-139700000D03*
X135128000Y-186436000D03*
X135636000Y-73660000D03*
X135636000Y-104140000D03*
X135636000Y-137160000D03*
X138430000Y-85090000D03*
X138430000Y-90170000D03*
X138684000Y-81788000D03*
X138684000Y-98044000D03*
X138938000Y-140499500D03*
X139700000Y-72390000D03*
X139700000Y-166370000D03*
X140424500Y-104648000D03*
X140716000Y-47244000D03*
X140716000Y-145288000D03*
X140949500Y-100330000D03*
X140970000Y-165100000D03*
X141007502Y-118364000D03*
X141224000Y-74168000D03*
X141515500Y-121412000D03*
X141515500Y-136144000D03*
X141965500Y-99060000D03*
X142023500Y-123190000D03*
X142240000Y-76200000D03*
X142748000Y-48260000D03*
X142748000Y-96520000D03*
X142748000Y-145796000D03*
X143492079Y-109944500D03*
X143510000Y-143510000D03*
X145936877Y-78463500D03*
X146072500Y-48260000D03*
X146812000Y-47244000D03*
X147320000Y-86360000D03*
X147320000Y-142240000D03*
X147320000Y-177800000D03*
X147404835Y-149944835D03*
X147873312Y-107233312D03*
X147889081Y-115024500D03*
X148336000Y-88900000D03*
X148612500Y-173990000D03*
X149352000Y-91440000D03*
X149634902Y-121120500D03*
X149860000Y-92710000D03*
X149860000Y-96520000D03*
X149860000Y-105410000D03*
X149860000Y-133350000D03*
X149860000Y-154940000D03*
X149860000Y-160020000D03*
X150363701Y-113288299D03*
X151088201Y-115099500D03*
X154215500Y-107479500D03*
X154427701Y-183604500D03*
X154934701Y-80258701D03*
X154940000Y-185420000D03*
X155448000Y-168656000D03*
X155606500Y-138430000D03*
X155956000Y-78740000D03*
X156210000Y-87630000D03*
X156210000Y-177800000D03*
X156230500Y-95250000D03*
X156464000Y-143764000D03*
X157480000Y-87630000D03*
X157480000Y-137160000D03*
X157480000Y-139700000D03*
X157480000Y-144780000D03*
X157988000Y-168148000D03*
X159512000Y-111035500D03*
X160020000Y-127000000D03*
X160528000Y-118580500D03*
X161290000Y-119380000D03*
X161290000Y-125730000D03*
X162560000Y-118110000D03*
X162560000Y-165100000D03*
X162560000Y-176530000D03*
X162560000Y-177800000D03*
X162564299Y-146299701D03*
X162722062Y-127182562D03*
X163195000Y-106045000D03*
X163830000Y-163830000D03*
X164084000Y-142240000D03*
X164723299Y-116708701D03*
X164883500Y-128232500D03*
X165100000Y-92732500D03*
X165100000Y-180340000D03*
X165100000Y-182880000D03*
X165391500Y-168439500D03*
X165608000Y-106680000D03*
X165882500Y-176530000D03*
X166116000Y-136144000D03*
X166370000Y-88900000D03*
X166370000Y-96520000D03*
X166624000Y-114300000D03*
X166624000Y-116840000D03*
X166624000Y-122936000D03*
X167640000Y-99060000D03*
X167640000Y-102108000D03*
X167640000Y-111760000D03*
X168148000Y-114300000D03*
X168656000Y-94996000D03*
X168656000Y-123952000D03*
X168910000Y-88900000D03*
X168910000Y-110490000D03*
X169672000Y-131064000D03*
X169692500Y-176552500D03*
X170180000Y-160020000D03*
X170396500Y-95250000D03*
X170688000Y-118655500D03*
X170688000Y-135636000D03*
X170962500Y-109414102D03*
X171427500Y-88900000D03*
X171450000Y-182880000D03*
X172720000Y-88900000D03*
X172720000Y-143510000D03*
X172720000Y-180340000D03*
X173990000Y-181610000D03*
X174239701Y-132583701D03*
X174772500Y-114300000D03*
X175534500Y-116840000D03*
X176530000Y-86360000D03*
X176530000Y-110490000D03*
X176530000Y-125730000D03*
X176784000Y-78740000D03*
X177800000Y-77724000D03*
X177800000Y-87607500D03*
X177800000Y-160528000D03*
X177800000Y-178816000D03*
X178312299Y-183392299D03*
X179070000Y-86360000D03*
X179070000Y-92710000D03*
X179070000Y-115570000D03*
X179070000Y-185420000D03*
X179832000Y-186436000D03*
X180340000Y-76200000D03*
X180340000Y-121920000D03*
X180340000Y-129540000D03*
X180340000Y-152400000D03*
X180340000Y-157480000D03*
X180340000Y-160020000D03*
X180360000Y-101600000D03*
X180417352Y-118166852D03*
X180565098Y-181139500D03*
X180635500Y-87376000D03*
X181630500Y-114300000D03*
X181632500Y-140970000D03*
X182857250Y-139722750D03*
X183347000Y-105410000D03*
X184129500Y-102870000D03*
X184150000Y-78760500D03*
X184150000Y-87607500D03*
X184150000Y-123190000D03*
X184150000Y-158750000D03*
X184637500Y-100330000D03*
X184637500Y-118110000D03*
X184637500Y-120650000D03*
X185420000Y-124460000D03*
X185420000Y-132080000D03*
X185420000Y-184912000D03*
X185928000Y-179832000D03*
X186690000Y-54610000D03*
X186690000Y-111760000D03*
X186690000Y-160020000D03*
X186944000Y-165100000D03*
X186944000Y-176784000D03*
X187833000Y-143383000D03*
X187939500Y-100330000D03*
X187939500Y-113030000D03*
X187960000Y-127000000D03*
X187960000Y-137160000D03*
X187960000Y-142262750D03*
X188251500Y-165899500D03*
X188976000Y-172212000D03*
X188976000Y-176276000D03*
X189230000Y-105156000D03*
X189230000Y-139700000D03*
X189488299Y-142743701D03*
X189700500Y-119380000D03*
X190520500Y-107950000D03*
X191770000Y-97790000D03*
X191770000Y-110490000D03*
X191770000Y-173990000D03*
X192024000Y-164084000D03*
X193040000Y-74930000D03*
X193839500Y-147094902D03*
X193839500Y-158496000D03*
X193839500Y-166370000D03*
X194056000Y-176276000D03*
X194264500Y-167640000D03*
X194310000Y-92710000D03*
X194564000Y-76200000D03*
X194564000Y-94996000D03*
X195557000Y-157480000D03*
X196042688Y-105709312D03*
X196088000Y-109728000D03*
X196850000Y-102870000D03*
X196850000Y-135890000D03*
X197104000Y-128305500D03*
X198120000Y-87607500D03*
X198628000Y-85852000D03*
X199390000Y-49552500D03*
X200660000Y-167640000D03*
X200660000Y-172720000D03*
X201163701Y-163571701D03*
X201188498Y-119380000D03*
X201188498Y-137160000D03*
X201676000Y-90170000D03*
X201930000Y-110490000D03*
X201970998Y-116840000D03*
X201970998Y-128247500D03*
X201970998Y-134620000D03*
X202687701Y-86364299D03*
X203200000Y-58420000D03*
X203200000Y-73660000D03*
X203200000Y-112268000D03*
X203200000Y-114300000D03*
X203200000Y-140970000D03*
X203708000Y-102324500D03*
X203708000Y-104939500D03*
X203708000Y-171704000D03*
X204216000Y-52324000D03*
X204216000Y-115824000D03*
X204216000Y-151384000D03*
X204432500Y-131064000D03*
X204432500Y-135419500D03*
X205740000Y-58420000D03*
X205740000Y-83820000D03*
X205740000Y-87607500D03*
X207010000Y-146050000D03*
X207027921Y-137884500D03*
X207259701Y-107479500D03*
X208280000Y-115570000D03*
X208284299Y-111755701D03*
X209296000Y-176784000D03*
X209550000Y-48260000D03*
X210820000Y-59690000D03*
X210820000Y-157480000D03*
X212090000Y-60960000D03*
X212090000Y-64770000D03*
X213360000Y-137160000D03*
X213360000Y-139700000D03*
X213868000Y-136144000D03*
X214376000Y-127000000D03*
X214376000Y-133604000D03*
X214630000Y-60960000D03*
X214630000Y-66040000D03*
X214879701Y-142743701D03*
X214884000Y-132080000D03*
X215100500Y-138684000D03*
X215895701Y-171200299D03*
X215900000Y-46990000D03*
X215900000Y-163830000D03*
X217170000Y-69850000D03*
X219710000Y-67310000D03*
X220980000Y-81788000D03*
X222250000Y-64770000D03*
X222250000Y-73660000D03*
X222250000Y-148590000D03*
X222250000Y-151130000D03*
X222250000Y-153670000D03*
X223520000Y-45720000D03*
X223520000Y-58420000D03*
X223524299Y-83824299D03*
X224536000Y-174244000D03*
X224790000Y-44450000D03*
X225552000Y-170180000D03*
X226060000Y-100076000D03*
X226060000Y-157480000D03*
X226060000Y-177800000D03*
X226351500Y-124460000D03*
X226679123Y-74147500D03*
X227076000Y-101092000D03*
X227330000Y-62230000D03*
X227330000Y-127000000D03*
X227330000Y-128270000D03*
X227330000Y-135890000D03*
X227367500Y-125730000D03*
X227800500Y-107950000D03*
X228071500Y-99060000D03*
X228600000Y-103632000D03*
X228600000Y-130810000D03*
X229145500Y-105664000D03*
X229616000Y-74147500D03*
X229870000Y-72390000D03*
X229870000Y-110490000D03*
X229870000Y-133350000D03*
X229870000Y-171450000D03*
X231135701Y-169159701D03*
X231140000Y-166624000D03*
X232410000Y-139700000D03*
X232410000Y-144780000D03*
X233680000Y-100330000D03*
X233680000Y-127000000D03*
X234696000Y-102616000D03*
X236220000Y-68580000D03*
X237490000Y-39370000D03*
X237490000Y-41910000D03*
X241322500Y-106680000D03*
X243840000Y-80010000D03*
X246380000Y-78740000D03*
X249872500Y-80010000D03*
X250190000Y-120672500D03*
X250190000Y-139700000D03*
X251460000Y-67310000D03*
X251460000Y-120672500D03*
X251460000Y-140970000D03*
X252730000Y-66040000D03*
X252730000Y-120672500D03*
X252730000Y-143510000D03*
X254000000Y-63500000D03*
X254000000Y-106680000D03*
X254000000Y-116840000D03*
X255016000Y-59944000D03*
X255016000Y-62230000D03*
X255016000Y-68580000D03*
X255270000Y-110490000D03*
X255270000Y-113030000D03*
X255478688Y-73614688D03*
X259080000Y-111760000D03*
X265430000Y-97790000D03*
X265430000Y-101600000D03*
X266425500Y-139700000D03*
X266700000Y-106680000D03*
X266700000Y-114300000D03*
X266700000Y-120650000D03*
X267949500Y-142240000D03*
X267970000Y-100330000D03*
X267970000Y-116840000D03*
X267970000Y-121920000D03*
X267970000Y-146050000D03*
X269240000Y-123190000D03*
X269240000Y-135890000D03*
X270256000Y-66040000D03*
X270510000Y-135890000D03*
X274320000Y-143510000D03*
D11*
%TO.C,H4*%
X45860000Y-190640000D03*
X46562944Y-188942944D03*
X46562944Y-192337056D03*
X48260000Y-188240000D03*
X48260000Y-193040000D03*
X49957056Y-188942944D03*
X49957056Y-192337056D03*
X50660000Y-190640000D03*
%TO.C,H1*%
X66180000Y-35560000D03*
X66882944Y-33862944D03*
X66882944Y-37257056D03*
X68580000Y-33160000D03*
X68580000Y-37960000D03*
X70277056Y-33862944D03*
X70277056Y-37257056D03*
X70980000Y-35560000D03*
%TO.C,H5*%
X111900000Y-35560000D03*
%TO.C,H3*%
X111900000Y-190500000D03*
%TO.C,H5*%
X112602944Y-33862944D03*
X112602944Y-37257056D03*
%TO.C,H3*%
X112602944Y-188802944D03*
X112602944Y-192197056D03*
%TO.C,H5*%
X114300000Y-33160000D03*
X114300000Y-37960000D03*
%TO.C,H3*%
X114300000Y-188100000D03*
X114300000Y-192900000D03*
%TO.C,H5*%
X115997056Y-33862944D03*
X115997056Y-37257056D03*
%TO.C,H3*%
X115997056Y-188802944D03*
X115997056Y-192197056D03*
%TO.C,H5*%
X116700000Y-35560000D03*
%TO.C,H3*%
X116700000Y-190500000D03*
%TO.C,H2*%
X269380000Y-58420000D03*
%TO.C,H6*%
X269380000Y-190500000D03*
%TO.C,H2*%
X270082944Y-56722944D03*
X270082944Y-60117056D03*
%TO.C,H6*%
X270082944Y-188802944D03*
X270082944Y-192197056D03*
%TO.C,H2*%
X271780000Y-56020000D03*
X271780000Y-60820000D03*
%TO.C,H6*%
X271780000Y-188100000D03*
X271780000Y-192900000D03*
%TO.C,H2*%
X273477056Y-56722944D03*
X273477056Y-60117056D03*
%TO.C,H6*%
X273477056Y-188802944D03*
X273477056Y-192197056D03*
%TO.C,H2*%
X274180000Y-58420000D03*
%TO.C,H6*%
X274180000Y-190500000D03*
D12*
%TO.C,REF\u002A\u002A*%
X38100000Y-160020000D03*
X38100000Y-162560000D03*
X38100000Y-165100000D03*
X38100000Y-167640000D03*
X38100000Y-170180000D03*
X38100000Y-172720000D03*
X38100000Y-175260000D03*
X38100000Y-177800000D03*
X38100000Y-180340000D03*
X38100000Y-182880000D03*
X40640000Y-160020000D03*
X40640000Y-162560000D03*
X40640000Y-165100000D03*
X40640000Y-167640000D03*
X40640000Y-170180000D03*
X40640000Y-172720000D03*
X40640000Y-175260000D03*
X40640000Y-177800000D03*
X40640000Y-180340000D03*
X40640000Y-182880000D03*
X43180000Y-160020000D03*
X43180000Y-162560000D03*
X43180000Y-165100000D03*
X43180000Y-167640000D03*
X43180000Y-170180000D03*
X43180000Y-172720000D03*
X43180000Y-175260000D03*
X43180000Y-177800000D03*
X43180000Y-180340000D03*
X43180000Y-182880000D03*
X45720000Y-160020000D03*
X45720000Y-162560000D03*
X45720000Y-165100000D03*
X45720000Y-167640000D03*
X45720000Y-170180000D03*
X45720000Y-172720000D03*
X45720000Y-175260000D03*
X45720000Y-177800000D03*
X45720000Y-180340000D03*
X45720000Y-182880000D03*
X48260000Y-160020000D03*
X48260000Y-162560000D03*
X48260000Y-165100000D03*
X48260000Y-167640000D03*
X48260000Y-170180000D03*
X48260000Y-172720000D03*
X48260000Y-175260000D03*
X48260000Y-177800000D03*
X48260000Y-180340000D03*
X48260000Y-182880000D03*
X50800000Y-160020000D03*
X50800000Y-162560000D03*
X50800000Y-165100000D03*
X50800000Y-167640000D03*
X50800000Y-170180000D03*
X50800000Y-172720000D03*
X50800000Y-175260000D03*
X50800000Y-177800000D03*
X50800000Y-180340000D03*
X50800000Y-182880000D03*
%TO.C,BUS4*%
X53340000Y-55880000D03*
X53340000Y-58420000D03*
X53340000Y-60960000D03*
X53340000Y-63500000D03*
X53340000Y-73660000D03*
X53340000Y-76200000D03*
X53340000Y-78740000D03*
X53340000Y-81280000D03*
X53340000Y-83820000D03*
X53340000Y-86360000D03*
X53340000Y-88900000D03*
X53340000Y-91440000D03*
X53340000Y-93980000D03*
X53340000Y-96520000D03*
X53340000Y-99060000D03*
X53340000Y-101600000D03*
X53340000Y-104140000D03*
X53340000Y-106680000D03*
X53340000Y-109220000D03*
X53340000Y-111760000D03*
X53340000Y-114300000D03*
X53340000Y-116840000D03*
%TO.C,REF\u002A\u002A*%
X53340000Y-160020000D03*
X53340000Y-162560000D03*
X53340000Y-165100000D03*
X53340000Y-167640000D03*
X53340000Y-170180000D03*
X53340000Y-172720000D03*
X53340000Y-175260000D03*
X53340000Y-177800000D03*
X53340000Y-180340000D03*
X53340000Y-182880000D03*
X55880000Y-160020000D03*
X55880000Y-162560000D03*
X55880000Y-165100000D03*
X55880000Y-167640000D03*
X55880000Y-170180000D03*
X55880000Y-172720000D03*
X55880000Y-175260000D03*
X55880000Y-177800000D03*
X55880000Y-180340000D03*
X55880000Y-182880000D03*
%TO.C,BUS4*%
X58420000Y-55880000D03*
X58420000Y-58420000D03*
X58420000Y-60960000D03*
X58420000Y-63500000D03*
X58420000Y-73660000D03*
X58420000Y-76200000D03*
X58420000Y-78740000D03*
X58420000Y-81280000D03*
X58420000Y-83820000D03*
X58420000Y-86360000D03*
X58420000Y-88900000D03*
X58420000Y-91440000D03*
X58420000Y-93980000D03*
X58420000Y-96520000D03*
X58420000Y-99060000D03*
X58420000Y-101600000D03*
X58420000Y-104140000D03*
X58420000Y-106680000D03*
X58420000Y-109220000D03*
X58420000Y-111760000D03*
X58420000Y-114300000D03*
X58420000Y-116840000D03*
%TO.C,REF\u002A\u002A*%
X58420000Y-160020000D03*
X58420000Y-162560000D03*
X58420000Y-165100000D03*
X58420000Y-167640000D03*
X58420000Y-170180000D03*
X58420000Y-172720000D03*
X58420000Y-175260000D03*
X58420000Y-177800000D03*
X58420000Y-180340000D03*
X58420000Y-182880000D03*
%TO.C,BUS3*%
X73660000Y-55880000D03*
X73660000Y-58420000D03*
X73660000Y-60960000D03*
X73660000Y-63500000D03*
X73660000Y-73660000D03*
X73660000Y-76200000D03*
X73660000Y-78740000D03*
X73660000Y-81280000D03*
X73660000Y-83820000D03*
X73660000Y-86360000D03*
X73660000Y-88900000D03*
X73660000Y-91440000D03*
X73660000Y-93980000D03*
X73660000Y-96520000D03*
X73660000Y-99060000D03*
X73660000Y-101600000D03*
X73660000Y-104140000D03*
X73660000Y-106680000D03*
X73660000Y-109220000D03*
X73660000Y-111760000D03*
X73660000Y-114300000D03*
X73660000Y-116840000D03*
X78740000Y-55880000D03*
X78740000Y-58420000D03*
X78740000Y-60960000D03*
X78740000Y-63500000D03*
X78740000Y-73660000D03*
X78740000Y-76200000D03*
X78740000Y-78740000D03*
X78740000Y-81280000D03*
X78740000Y-83820000D03*
X78740000Y-86360000D03*
X78740000Y-88900000D03*
X78740000Y-91440000D03*
X78740000Y-93980000D03*
X78740000Y-96520000D03*
X78740000Y-99060000D03*
X78740000Y-101600000D03*
X78740000Y-104140000D03*
X78740000Y-106680000D03*
X78740000Y-109220000D03*
X78740000Y-111760000D03*
X78740000Y-114300000D03*
X78740000Y-116840000D03*
%TO.C,BUS2*%
X93980000Y-50800000D03*
X93980000Y-53340000D03*
X93980000Y-55880000D03*
X93980000Y-58420000D03*
X93980000Y-60960000D03*
X93980000Y-63500000D03*
X93980000Y-73660000D03*
X93980000Y-76200000D03*
X93980000Y-78740000D03*
X93980000Y-81280000D03*
X93980000Y-83820000D03*
X93980000Y-86360000D03*
X93980000Y-88900000D03*
X93980000Y-91440000D03*
X93980000Y-93980000D03*
X93980000Y-96520000D03*
X93980000Y-99060000D03*
X93980000Y-101600000D03*
X93980000Y-104140000D03*
X93980000Y-106680000D03*
X93980000Y-109220000D03*
X93980000Y-111760000D03*
X93980000Y-114300000D03*
X93980000Y-116840000D03*
X99060000Y-50800000D03*
X99060000Y-53340000D03*
X99060000Y-55880000D03*
X99060000Y-58420000D03*
X99060000Y-60960000D03*
X99060000Y-63500000D03*
X99060000Y-73660000D03*
X99060000Y-76200000D03*
X99060000Y-78740000D03*
X99060000Y-81280000D03*
X99060000Y-83820000D03*
X99060000Y-86360000D03*
X99060000Y-88900000D03*
X99060000Y-91440000D03*
X99060000Y-93980000D03*
X99060000Y-96520000D03*
X99060000Y-99060000D03*
X99060000Y-101600000D03*
X99060000Y-104140000D03*
X99060000Y-106680000D03*
X99060000Y-109220000D03*
X99060000Y-111760000D03*
X99060000Y-114300000D03*
X99060000Y-116840000D03*
%TO.C,BUS1*%
X114300000Y-50800000D03*
X114300000Y-53340000D03*
X114300000Y-55880000D03*
X114300000Y-58420000D03*
X114300000Y-60960000D03*
X114300000Y-63500000D03*
X114300000Y-73660000D03*
X114300000Y-76200000D03*
X114300000Y-78740000D03*
X114300000Y-81280000D03*
X114300000Y-83820000D03*
X114300000Y-86360000D03*
X114300000Y-88900000D03*
X114300000Y-91440000D03*
X114300000Y-93980000D03*
X114300000Y-96520000D03*
X114300000Y-99060000D03*
X114300000Y-101600000D03*
X114300000Y-104140000D03*
X114300000Y-106680000D03*
X114300000Y-109220000D03*
X114300000Y-111760000D03*
X114300000Y-114300000D03*
X114300000Y-116840000D03*
X119380000Y-50800000D03*
X119380000Y-53340000D03*
X119380000Y-55880000D03*
X119380000Y-58420000D03*
X119380000Y-60960000D03*
X119380000Y-63500000D03*
X119380000Y-73660000D03*
X119380000Y-76200000D03*
X119380000Y-78740000D03*
X119380000Y-81280000D03*
X119380000Y-83820000D03*
X119380000Y-86360000D03*
X119380000Y-88900000D03*
X119380000Y-91440000D03*
X119380000Y-93980000D03*
X119380000Y-96520000D03*
X119380000Y-99060000D03*
X119380000Y-101600000D03*
X119380000Y-104140000D03*
X119380000Y-106680000D03*
X119380000Y-109220000D03*
X119380000Y-111760000D03*
X119380000Y-114300000D03*
X119380000Y-116840000D03*
%TO.C,REF\u002A\u002A*%
X160020000Y-50800000D03*
X160020000Y-53340000D03*
X160020000Y-55880000D03*
X160020000Y-58420000D03*
X160020000Y-60960000D03*
X160020000Y-63500000D03*
X160020000Y-66040000D03*
X160020000Y-68580000D03*
X160020000Y-71120000D03*
X160020000Y-73660000D03*
X162560000Y-50800000D03*
X162560000Y-53340000D03*
X162560000Y-55880000D03*
X162560000Y-58420000D03*
X162560000Y-60960000D03*
X162560000Y-63500000D03*
X162560000Y-66040000D03*
X162560000Y-68580000D03*
X162560000Y-71120000D03*
X162560000Y-73660000D03*
X165100000Y-50800000D03*
X165100000Y-53340000D03*
X165100000Y-55880000D03*
X165100000Y-58420000D03*
X165100000Y-60960000D03*
X165100000Y-63500000D03*
X165100000Y-66040000D03*
X165100000Y-68580000D03*
X165100000Y-71120000D03*
X165100000Y-73660000D03*
X167640000Y-50800000D03*
X167640000Y-53340000D03*
X167640000Y-55880000D03*
X167640000Y-58420000D03*
X167640000Y-60960000D03*
X167640000Y-63500000D03*
X167640000Y-66040000D03*
X167640000Y-68580000D03*
X167640000Y-71120000D03*
X167640000Y-73660000D03*
X170180000Y-50800000D03*
X170180000Y-53340000D03*
X170180000Y-55880000D03*
X170180000Y-58420000D03*
X170180000Y-60960000D03*
X170180000Y-63500000D03*
X170180000Y-66040000D03*
X170180000Y-68580000D03*
X170180000Y-71120000D03*
X170180000Y-73660000D03*
X172720000Y-50800000D03*
X172720000Y-53340000D03*
X172720000Y-55880000D03*
X172720000Y-58420000D03*
X172720000Y-60960000D03*
X172720000Y-63500000D03*
X172720000Y-66040000D03*
X172720000Y-68580000D03*
X172720000Y-71120000D03*
X172720000Y-73660000D03*
X175260000Y-50800000D03*
X175260000Y-53340000D03*
X175260000Y-55880000D03*
X175260000Y-58420000D03*
X175260000Y-60960000D03*
X175260000Y-63500000D03*
X175260000Y-66040000D03*
X175260000Y-68580000D03*
X175260000Y-71120000D03*
X175260000Y-73660000D03*
X177800000Y-50800000D03*
X177800000Y-53340000D03*
X177800000Y-55880000D03*
X177800000Y-58420000D03*
X177800000Y-60960000D03*
X177800000Y-63500000D03*
X177800000Y-66040000D03*
X177800000Y-68580000D03*
X177800000Y-71120000D03*
X177800000Y-73660000D03*
X180340000Y-50800000D03*
X180340000Y-53340000D03*
X180340000Y-55880000D03*
X180340000Y-58420000D03*
X180340000Y-60960000D03*
X180340000Y-63500000D03*
X180340000Y-66040000D03*
X180340000Y-68580000D03*
X180340000Y-71120000D03*
X180340000Y-73660000D03*
X182880000Y-50800000D03*
X182880000Y-53340000D03*
X182880000Y-55880000D03*
X182880000Y-58420000D03*
X182880000Y-60960000D03*
X182880000Y-63500000D03*
X182880000Y-66040000D03*
X182880000Y-68580000D03*
X182880000Y-71120000D03*
X182880000Y-73660000D03*
X190500000Y-182880000D03*
X190500000Y-185420000D03*
X190500000Y-187960000D03*
X190500000Y-190500000D03*
X190500000Y-193040000D03*
X193040000Y-182880000D03*
X193040000Y-185420000D03*
X193040000Y-187960000D03*
X193040000Y-190500000D03*
X193040000Y-193040000D03*
X195580000Y-182880000D03*
X195580000Y-185420000D03*
X195580000Y-187960000D03*
X195580000Y-190500000D03*
X195580000Y-193040000D03*
X198120000Y-182880000D03*
X198120000Y-185420000D03*
X198120000Y-187960000D03*
X198120000Y-190500000D03*
X198120000Y-193040000D03*
X200660000Y-182880000D03*
X200660000Y-185420000D03*
X200660000Y-187960000D03*
X200660000Y-190500000D03*
X200660000Y-193040000D03*
X203200000Y-182880000D03*
X203200000Y-185420000D03*
X203200000Y-187960000D03*
X203200000Y-190500000D03*
X203200000Y-193040000D03*
X205740000Y-182880000D03*
X205740000Y-185420000D03*
X205740000Y-187960000D03*
X205740000Y-190500000D03*
X205740000Y-193040000D03*
X208280000Y-182880000D03*
X208280000Y-185420000D03*
X208280000Y-187960000D03*
X208280000Y-190500000D03*
X208280000Y-193040000D03*
X210820000Y-182880000D03*
X210820000Y-185420000D03*
X210820000Y-187960000D03*
X210820000Y-190500000D03*
X210820000Y-193040000D03*
X213360000Y-182880000D03*
X213360000Y-185420000D03*
X213360000Y-187960000D03*
X213360000Y-190500000D03*
X213360000Y-193040000D03*
X215900000Y-182880000D03*
X215900000Y-185420000D03*
X215900000Y-187960000D03*
X215900000Y-190500000D03*
X215900000Y-193040000D03*
X218440000Y-182880000D03*
X218440000Y-185420000D03*
X218440000Y-187960000D03*
X218440000Y-190500000D03*
X218440000Y-193040000D03*
X220980000Y-182880000D03*
X220980000Y-185420000D03*
X220980000Y-187960000D03*
X220980000Y-190500000D03*
X220980000Y-193040000D03*
X223520000Y-182880000D03*
X223520000Y-185420000D03*
X223520000Y-187960000D03*
X223520000Y-190500000D03*
X223520000Y-193040000D03*
X226060000Y-182880000D03*
X226060000Y-185420000D03*
X226060000Y-187960000D03*
X226060000Y-190500000D03*
X226060000Y-193040000D03*
X228600000Y-182880000D03*
X228600000Y-185420000D03*
X228600000Y-187960000D03*
X228600000Y-190500000D03*
X228600000Y-193040000D03*
X231140000Y-182880000D03*
X231140000Y-185420000D03*
X231140000Y-187960000D03*
X231140000Y-190500000D03*
X231140000Y-193040000D03*
X233680000Y-162560000D03*
X233680000Y-165100000D03*
X233680000Y-167640000D03*
X233680000Y-170180000D03*
X233680000Y-172720000D03*
X233680000Y-175260000D03*
X233680000Y-177800000D03*
X233680000Y-180340000D03*
X233680000Y-182880000D03*
X233680000Y-185420000D03*
X233680000Y-187960000D03*
X233680000Y-190500000D03*
X233680000Y-193040000D03*
X236220000Y-162560000D03*
X236220000Y-165100000D03*
X236220000Y-167640000D03*
X236220000Y-170180000D03*
X236220000Y-172720000D03*
X236220000Y-175260000D03*
X236220000Y-177800000D03*
X236220000Y-180340000D03*
X236220000Y-182880000D03*
X236220000Y-185420000D03*
X236220000Y-187960000D03*
X236220000Y-190500000D03*
X236220000Y-193040000D03*
X238760000Y-162560000D03*
X238760000Y-165100000D03*
X238760000Y-167640000D03*
X238760000Y-170180000D03*
X238760000Y-172720000D03*
X238760000Y-175260000D03*
X238760000Y-177800000D03*
X238760000Y-180340000D03*
X238760000Y-182880000D03*
X238760000Y-185420000D03*
X238760000Y-187960000D03*
X238760000Y-190500000D03*
X238760000Y-193040000D03*
X241300000Y-162560000D03*
X241300000Y-165100000D03*
X241300000Y-167640000D03*
X241300000Y-170180000D03*
X241300000Y-172720000D03*
X241300000Y-175260000D03*
X241300000Y-177800000D03*
X241300000Y-180340000D03*
X241300000Y-182880000D03*
X241300000Y-185420000D03*
X241300000Y-187960000D03*
X241300000Y-190500000D03*
X241300000Y-193040000D03*
X243840000Y-162560000D03*
X243840000Y-165100000D03*
X243840000Y-167640000D03*
X243840000Y-170180000D03*
X243840000Y-172720000D03*
X243840000Y-175260000D03*
X243840000Y-177800000D03*
X243840000Y-180340000D03*
X243840000Y-182880000D03*
X243840000Y-185420000D03*
X243840000Y-187960000D03*
X243840000Y-190500000D03*
X243840000Y-193040000D03*
X246380000Y-162560000D03*
X246380000Y-165100000D03*
X246380000Y-167640000D03*
X246380000Y-170180000D03*
X246380000Y-172720000D03*
X246380000Y-175260000D03*
X246380000Y-177800000D03*
X246380000Y-180340000D03*
X246380000Y-182880000D03*
X246380000Y-185420000D03*
X246380000Y-187960000D03*
X246380000Y-190500000D03*
X246380000Y-193040000D03*
X248920000Y-162560000D03*
X248920000Y-165100000D03*
X248920000Y-167640000D03*
X248920000Y-170180000D03*
X248920000Y-172720000D03*
X248920000Y-175260000D03*
X248920000Y-177800000D03*
X248920000Y-180340000D03*
X248920000Y-182880000D03*
X248920000Y-185420000D03*
X248920000Y-187960000D03*
X248920000Y-190500000D03*
X248920000Y-193040000D03*
X251460000Y-162560000D03*
X251460000Y-165100000D03*
X251460000Y-167640000D03*
X251460000Y-170180000D03*
X251460000Y-172720000D03*
X251460000Y-175260000D03*
X251460000Y-177800000D03*
X251460000Y-180340000D03*
X251460000Y-182880000D03*
X251460000Y-185420000D03*
X251460000Y-187960000D03*
X251460000Y-190500000D03*
X251460000Y-193040000D03*
X254000000Y-162560000D03*
X254000000Y-165100000D03*
X254000000Y-167640000D03*
X254000000Y-170180000D03*
X254000000Y-172720000D03*
X254000000Y-175260000D03*
X254000000Y-177800000D03*
X254000000Y-180340000D03*
X254000000Y-182880000D03*
X254000000Y-185420000D03*
X254000000Y-187960000D03*
X254000000Y-190500000D03*
X254000000Y-193040000D03*
X256540000Y-162560000D03*
X256540000Y-165100000D03*
X256540000Y-167640000D03*
X256540000Y-170180000D03*
X256540000Y-172720000D03*
X256540000Y-175260000D03*
X256540000Y-177800000D03*
X256540000Y-180340000D03*
X256540000Y-182880000D03*
X256540000Y-185420000D03*
X256540000Y-187960000D03*
X256540000Y-190500000D03*
X256540000Y-193040000D03*
X259080000Y-162560000D03*
X259080000Y-165100000D03*
X259080000Y-167640000D03*
X259080000Y-170180000D03*
X259080000Y-172720000D03*
X259080000Y-175260000D03*
X259080000Y-177800000D03*
X259080000Y-180340000D03*
X259080000Y-182880000D03*
X259080000Y-185420000D03*
X259080000Y-187960000D03*
X259080000Y-190500000D03*
X259080000Y-193040000D03*
X261620000Y-162560000D03*
X261620000Y-165100000D03*
X261620000Y-167640000D03*
X261620000Y-170180000D03*
X261620000Y-172720000D03*
X261620000Y-175260000D03*
X261620000Y-177800000D03*
X261620000Y-180340000D03*
X261620000Y-182880000D03*
X261620000Y-185420000D03*
X261620000Y-187960000D03*
X261620000Y-190500000D03*
X261620000Y-193040000D03*
X264160000Y-162560000D03*
X264160000Y-165100000D03*
X264160000Y-167640000D03*
X264160000Y-170180000D03*
X264160000Y-172720000D03*
X264160000Y-175260000D03*
X264160000Y-177800000D03*
X264160000Y-180340000D03*
X264160000Y-182880000D03*
X264160000Y-185420000D03*
X264160000Y-187960000D03*
X264160000Y-190500000D03*
X264160000Y-193040000D03*
X266700000Y-162560000D03*
X266700000Y-165100000D03*
X266700000Y-167640000D03*
X266700000Y-170180000D03*
X266700000Y-172720000D03*
X266700000Y-175260000D03*
X266700000Y-177800000D03*
X266700000Y-180340000D03*
X266700000Y-182880000D03*
X269240000Y-162560000D03*
X269240000Y-165100000D03*
X269240000Y-167640000D03*
X269240000Y-170180000D03*
X269240000Y-172720000D03*
X269240000Y-175260000D03*
X269240000Y-177800000D03*
X269240000Y-180340000D03*
X269240000Y-182880000D03*
X271780000Y-162560000D03*
X271780000Y-165100000D03*
X271780000Y-167640000D03*
X271780000Y-170180000D03*
X271780000Y-172720000D03*
X271780000Y-175260000D03*
X271780000Y-177800000D03*
X271780000Y-180340000D03*
X271780000Y-182880000D03*
X274320000Y-162560000D03*
X274320000Y-165100000D03*
X274320000Y-167640000D03*
X274320000Y-170180000D03*
X274320000Y-172720000D03*
X274320000Y-175260000D03*
X274320000Y-177800000D03*
X274320000Y-180340000D03*
X274320000Y-182880000D03*
D13*
%TO.C,X1*%
X38100000Y-106680000D03*
X38100000Y-114300000D03*
%TO.C,C24*%
X40680000Y-124968000D03*
X45680000Y-124968000D03*
%TO.C,R3*%
X45720000Y-88900000D03*
X45720000Y-96520000D03*
%TO.C,X1*%
X45720000Y-106680000D03*
X45720000Y-114300000D03*
%TO.C,U34*%
X50800000Y-129540000D03*
X50800000Y-132080000D03*
X50800000Y-134620000D03*
X50800000Y-137160000D03*
X50800000Y-139700000D03*
X50800000Y-142240000D03*
X50800000Y-144780000D03*
X58420000Y-129540000D03*
X58420000Y-132080000D03*
X58420000Y-134620000D03*
X58420000Y-137160000D03*
X58420000Y-139700000D03*
X58420000Y-142240000D03*
X58420000Y-144780000D03*
%TO.C,SW1*%
X63500000Y-134620000D03*
X63500000Y-137160000D03*
X63500000Y-139700000D03*
X63500000Y-142240000D03*
%TO.C,U12*%
X63500000Y-152395000D03*
X63500000Y-154935000D03*
X63500000Y-157475000D03*
X63500000Y-160015000D03*
X63500000Y-162555000D03*
X63500000Y-165095000D03*
X63500000Y-167635000D03*
%TO.C,C16*%
X63500000Y-172800000D03*
X63500000Y-177800000D03*
%TO.C,R1*%
X63500000Y-182880000D03*
%TO.C,C1*%
X66040000Y-58500000D03*
X66040000Y-63500000D03*
%TO.C,C5*%
X66040000Y-116920000D03*
X66040000Y-121920000D03*
%TO.C,SW1*%
X71120000Y-134620000D03*
X71120000Y-137160000D03*
X71120000Y-139700000D03*
X71120000Y-142240000D03*
%TO.C,U12*%
X71120000Y-152395000D03*
X71120000Y-154935000D03*
X71120000Y-157475000D03*
X71120000Y-160015000D03*
X71120000Y-162555000D03*
X71120000Y-165095000D03*
X71120000Y-167635000D03*
%TO.C,R1*%
X71120000Y-182880000D03*
%TO.C,RN2*%
X74930000Y-129540000D03*
X74930000Y-132080000D03*
X74930000Y-134620000D03*
X74930000Y-137160000D03*
X74930000Y-139700000D03*
%TO.C,RN7*%
X74930000Y-152400000D03*
X74930000Y-154940000D03*
X74930000Y-157480000D03*
X74930000Y-160020000D03*
X74930000Y-162560000D03*
%TO.C,U33*%
X78730000Y-129540000D03*
X78730000Y-132080000D03*
X78730000Y-134620000D03*
X78730000Y-137160000D03*
X78730000Y-139700000D03*
X78730000Y-142240000D03*
X78730000Y-144780000D03*
%TO.C,U31*%
X78740000Y-152400000D03*
X78740000Y-154940000D03*
X78740000Y-157480000D03*
X78740000Y-160020000D03*
X78740000Y-162560000D03*
X78740000Y-165100000D03*
X78740000Y-167640000D03*
%TO.C,U35*%
X78740000Y-175260000D03*
X78740000Y-177800000D03*
X78740000Y-180340000D03*
X78740000Y-182880000D03*
X78740000Y-185420000D03*
X78740000Y-187960000D03*
X78740000Y-190500000D03*
%TO.C,U33*%
X86350000Y-129540000D03*
X86350000Y-132080000D03*
X86350000Y-134620000D03*
X86350000Y-137160000D03*
X86350000Y-139700000D03*
X86350000Y-142240000D03*
X86350000Y-144780000D03*
%TO.C,C2*%
X86360000Y-58500000D03*
X86360000Y-63500000D03*
%TO.C,C6*%
X86360000Y-116920000D03*
X86360000Y-121920000D03*
%TO.C,U31*%
X86360000Y-152400000D03*
X86360000Y-154940000D03*
X86360000Y-157480000D03*
X86360000Y-160020000D03*
X86360000Y-162560000D03*
X86360000Y-165100000D03*
X86360000Y-167640000D03*
%TO.C,U35*%
X86360000Y-175260000D03*
X86360000Y-177800000D03*
X86360000Y-180340000D03*
X86360000Y-182880000D03*
X86360000Y-185420000D03*
X86360000Y-187960000D03*
X86360000Y-190500000D03*
%TO.C,C23*%
X86908000Y-171704000D03*
X91908000Y-171704000D03*
%TO.C,U22*%
X93980000Y-129540000D03*
X93980000Y-132080000D03*
X93980000Y-134620000D03*
X93980000Y-137160000D03*
X93980000Y-139700000D03*
X93980000Y-142240000D03*
X93980000Y-144780000D03*
%TO.C,U17*%
X93980000Y-152400000D03*
X93980000Y-154940000D03*
X93980000Y-157480000D03*
X93980000Y-160020000D03*
X93980000Y-162560000D03*
X93980000Y-165100000D03*
X93980000Y-167640000D03*
%TO.C,U30*%
X93980000Y-175260000D03*
X93980000Y-177800000D03*
X93980000Y-180340000D03*
X93980000Y-182880000D03*
X93980000Y-185420000D03*
X93980000Y-187960000D03*
X93980000Y-190500000D03*
%TO.C,C22*%
X97068000Y-171704000D03*
%TO.C,U22*%
X101600000Y-129540000D03*
X101600000Y-132080000D03*
X101600000Y-134620000D03*
X101600000Y-137160000D03*
X101600000Y-139700000D03*
X101600000Y-142240000D03*
X101600000Y-144780000D03*
%TO.C,U17*%
X101600000Y-152400000D03*
X101600000Y-154940000D03*
X101600000Y-157480000D03*
X101600000Y-160020000D03*
X101600000Y-162560000D03*
X101600000Y-165100000D03*
X101600000Y-167640000D03*
%TO.C,U30*%
X101600000Y-175260000D03*
X101600000Y-177800000D03*
X101600000Y-180340000D03*
X101600000Y-182880000D03*
X101600000Y-185420000D03*
X101600000Y-187960000D03*
X101600000Y-190500000D03*
%TO.C,C22*%
X102068000Y-171704000D03*
%TO.C,C3*%
X106680000Y-58500000D03*
X106680000Y-63500000D03*
%TO.C,C7*%
X106680000Y-116840000D03*
X106680000Y-121840000D03*
%TO.C,U6*%
X109220000Y-129540000D03*
X109220000Y-132080000D03*
X109220000Y-134620000D03*
X109220000Y-137160000D03*
X109220000Y-139700000D03*
X109220000Y-142240000D03*
X109220000Y-144780000D03*
X109220000Y-147320000D03*
%TO.C,U28*%
X109220000Y-152400000D03*
X109220000Y-154940000D03*
X109220000Y-157480000D03*
X109220000Y-160020000D03*
X109220000Y-162560000D03*
X109220000Y-165100000D03*
X109220000Y-167640000D03*
%TO.C,U6*%
X116840000Y-129540000D03*
X116840000Y-132080000D03*
X116840000Y-134620000D03*
X116840000Y-137160000D03*
X116840000Y-139700000D03*
X116840000Y-142240000D03*
X116840000Y-144780000D03*
X116840000Y-147320000D03*
%TO.C,U28*%
X116840000Y-152400000D03*
X116840000Y-154940000D03*
X116840000Y-157480000D03*
X116840000Y-160020000D03*
X116840000Y-162560000D03*
X116840000Y-165100000D03*
X116840000Y-167640000D03*
%TO.C,R2*%
X124460000Y-157480000D03*
X124460000Y-165100000D03*
%TO.C,RN1*%
X125730000Y-132080000D03*
X125730000Y-134620000D03*
X125730000Y-137160000D03*
X125730000Y-139700000D03*
X125730000Y-142240000D03*
X125730000Y-144780000D03*
X125730000Y-147320000D03*
X125730000Y-149860000D03*
X125730000Y-152400000D03*
%TO.C,U21*%
X129540000Y-71120000D03*
X129540000Y-73660000D03*
X129540000Y-76200000D03*
X129540000Y-78740000D03*
X129540000Y-81280000D03*
X129540000Y-83820000D03*
X129540000Y-86360000D03*
X129540000Y-88900000D03*
X129540000Y-91440000D03*
X129540000Y-93980000D03*
%TO.C,U20*%
X129540000Y-101600000D03*
X129540000Y-104140000D03*
X129540000Y-106680000D03*
X129540000Y-109220000D03*
X129540000Y-111760000D03*
X129540000Y-114300000D03*
X129540000Y-116840000D03*
X129540000Y-119380000D03*
X129540000Y-121920000D03*
X129540000Y-124460000D03*
%TO.C,U26*%
X129540000Y-132080000D03*
X129540000Y-134620000D03*
X129540000Y-137160000D03*
X129540000Y-139700000D03*
X129540000Y-142240000D03*
X129540000Y-144780000D03*
X129540000Y-147320000D03*
X129540000Y-149860000D03*
X129540000Y-152400000D03*
X129540000Y-154940000D03*
%TO.C,U25*%
X129540000Y-162560000D03*
X129540000Y-165100000D03*
X129540000Y-167640000D03*
X129540000Y-170180000D03*
X129540000Y-172720000D03*
X129540000Y-175260000D03*
X129540000Y-177800000D03*
X129540000Y-180340000D03*
X129540000Y-182880000D03*
X129540000Y-185420000D03*
%TO.C,C9*%
X130810000Y-39410000D03*
X130810000Y-41910000D03*
%TO.C,C10*%
X130810000Y-49530000D03*
X130810000Y-52030000D03*
%TO.C,C11*%
X130810000Y-59690000D03*
X130810000Y-62190000D03*
%TO.C,U21*%
X137160000Y-71120000D03*
X137160000Y-73660000D03*
X137160000Y-76200000D03*
X137160000Y-78740000D03*
X137160000Y-81280000D03*
X137160000Y-83820000D03*
X137160000Y-86360000D03*
X137160000Y-88900000D03*
X137160000Y-91440000D03*
X137160000Y-93980000D03*
%TO.C,U20*%
X137160000Y-101600000D03*
X137160000Y-104140000D03*
X137160000Y-106680000D03*
X137160000Y-109220000D03*
X137160000Y-111760000D03*
X137160000Y-114300000D03*
X137160000Y-116840000D03*
X137160000Y-119380000D03*
X137160000Y-121920000D03*
X137160000Y-124460000D03*
%TO.C,U26*%
X137160000Y-132080000D03*
X137160000Y-134620000D03*
X137160000Y-137160000D03*
X137160000Y-139700000D03*
X137160000Y-142240000D03*
X137160000Y-144780000D03*
X137160000Y-147320000D03*
X137160000Y-149860000D03*
X137160000Y-152400000D03*
X137160000Y-154940000D03*
%TO.C,U25*%
X137160000Y-162560000D03*
X137160000Y-165100000D03*
X137160000Y-167640000D03*
X137160000Y-170180000D03*
X137160000Y-172720000D03*
X137160000Y-175260000D03*
X137160000Y-177800000D03*
X137160000Y-180340000D03*
X137160000Y-182880000D03*
X137160000Y-185420000D03*
%TO.C,C28*%
X137708000Y-128016000D03*
X142708000Y-128016000D03*
%TO.C,C29*%
X144312000Y-72136000D03*
%TO.C,U18*%
X144780000Y-83820000D03*
X144780000Y-86360000D03*
X144780000Y-88900000D03*
X144780000Y-91440000D03*
X144780000Y-93980000D03*
X144780000Y-96520000D03*
X144780000Y-99060000D03*
X144780000Y-101600000D03*
%TO.C,U8*%
X144780000Y-106680000D03*
X144780000Y-109220000D03*
X144780000Y-111760000D03*
X144780000Y-114300000D03*
X144780000Y-116840000D03*
X144780000Y-119380000D03*
X144780000Y-121920000D03*
X144780000Y-124460000D03*
%TO.C,U27*%
X144780000Y-132080000D03*
X144780000Y-134620000D03*
X144780000Y-137160000D03*
X144780000Y-139700000D03*
X144780000Y-142240000D03*
X144780000Y-144780000D03*
X144780000Y-147320000D03*
%TO.C,U19*%
X144780000Y-154940000D03*
X144780000Y-157480000D03*
X144780000Y-160020000D03*
X144780000Y-162560000D03*
X144780000Y-165100000D03*
X144780000Y-167640000D03*
X144780000Y-170180000D03*
%TO.C,U23*%
X144780000Y-175260000D03*
X144780000Y-177800000D03*
X144780000Y-180340000D03*
X144780000Y-182880000D03*
X144780000Y-185420000D03*
X144780000Y-187960000D03*
X144780000Y-190500000D03*
%TO.C,C29*%
X149312000Y-72136000D03*
%TO.C,U18*%
X152400000Y-83820000D03*
X152400000Y-86360000D03*
X152400000Y-88900000D03*
X152400000Y-91440000D03*
X152400000Y-93980000D03*
X152400000Y-96520000D03*
X152400000Y-99060000D03*
X152400000Y-101600000D03*
%TO.C,U8*%
X152400000Y-106680000D03*
X152400000Y-109220000D03*
X152400000Y-111760000D03*
X152400000Y-114300000D03*
X152400000Y-116840000D03*
X152400000Y-119380000D03*
X152400000Y-121920000D03*
X152400000Y-124460000D03*
%TO.C,U27*%
X152400000Y-132080000D03*
X152400000Y-134620000D03*
X152400000Y-137160000D03*
X152400000Y-139700000D03*
X152400000Y-142240000D03*
X152400000Y-144780000D03*
X152400000Y-147320000D03*
%TO.C,U19*%
X152400000Y-154940000D03*
X152400000Y-157480000D03*
X152400000Y-160020000D03*
X152400000Y-162560000D03*
X152400000Y-165100000D03*
X152400000Y-167640000D03*
X152400000Y-170180000D03*
%TO.C,U23*%
X152400000Y-175260000D03*
X152400000Y-177800000D03*
X152400000Y-180340000D03*
X152400000Y-182880000D03*
X152400000Y-185420000D03*
X152400000Y-187960000D03*
X152400000Y-190500000D03*
%TO.C,C27*%
X152440000Y-128016000D03*
%TO.C,C18*%
X152440000Y-151384000D03*
%TO.C,C27*%
X157440000Y-128016000D03*
%TO.C,C18*%
X157440000Y-151384000D03*
%TO.C,U7*%
X157480000Y-91440000D03*
X157480000Y-93980000D03*
X157480000Y-96520000D03*
X157480000Y-99060000D03*
X157480000Y-101600000D03*
X157480000Y-104140000D03*
X157480000Y-106680000D03*
X157480000Y-109220000D03*
X157480000Y-111760000D03*
X157480000Y-114300000D03*
X157480000Y-116840000D03*
X157480000Y-119380000D03*
X157480000Y-121920000D03*
X157480000Y-124460000D03*
%TO.C,U10*%
X160020000Y-132080000D03*
X160020000Y-134620000D03*
X160020000Y-137160000D03*
X160020000Y-139700000D03*
X160020000Y-142240000D03*
X160020000Y-144780000D03*
X160020000Y-147320000D03*
%TO.C,U11*%
X160020000Y-154940000D03*
X160020000Y-157480000D03*
X160020000Y-160020000D03*
X160020000Y-162560000D03*
X160020000Y-165100000D03*
X160020000Y-167640000D03*
X160020000Y-170180000D03*
%TO.C,U29*%
X160020000Y-175260000D03*
X160020000Y-177800000D03*
X160020000Y-180340000D03*
X160020000Y-182880000D03*
X160020000Y-185420000D03*
X160020000Y-187960000D03*
X160020000Y-190500000D03*
%TO.C,C17*%
X162600000Y-150876000D03*
X167600000Y-150876000D03*
%TO.C,U10*%
X167640000Y-132080000D03*
X167640000Y-134620000D03*
X167640000Y-137160000D03*
X167640000Y-139700000D03*
X167640000Y-142240000D03*
X167640000Y-144780000D03*
X167640000Y-147320000D03*
%TO.C,U11*%
X167640000Y-154940000D03*
X167640000Y-157480000D03*
X167640000Y-160020000D03*
X167640000Y-162560000D03*
X167640000Y-165100000D03*
X167640000Y-167640000D03*
X167640000Y-170180000D03*
%TO.C,U29*%
X167640000Y-175260000D03*
X167640000Y-177800000D03*
X167640000Y-180340000D03*
X167640000Y-182880000D03*
X167640000Y-185420000D03*
X167640000Y-187960000D03*
X167640000Y-190500000D03*
%TO.C,C8*%
X170180000Y-45720000D03*
%TO.C,U7*%
X172720000Y-91440000D03*
X172720000Y-93980000D03*
X172720000Y-96520000D03*
X172720000Y-99060000D03*
X172720000Y-101600000D03*
X172720000Y-104140000D03*
X172720000Y-106680000D03*
X172720000Y-109220000D03*
X172720000Y-111760000D03*
X172720000Y-114300000D03*
X172720000Y-116840000D03*
X172720000Y-119380000D03*
X172720000Y-121920000D03*
X172720000Y-124460000D03*
%TO.C,C8*%
X175180000Y-45720000D03*
%TO.C,U24*%
X175260000Y-154940000D03*
X175260000Y-157480000D03*
X175260000Y-160020000D03*
X175260000Y-162560000D03*
X175260000Y-165100000D03*
X175260000Y-167640000D03*
X175260000Y-170180000D03*
%TO.C,U41*%
X175260000Y-175260000D03*
X175260000Y-177800000D03*
X175260000Y-180340000D03*
X175260000Y-182880000D03*
X175260000Y-185420000D03*
X175260000Y-187960000D03*
X175260000Y-190500000D03*
%TO.C,U1*%
X177800000Y-91440000D03*
X177800000Y-93980000D03*
X177800000Y-96520000D03*
X177800000Y-99060000D03*
X177800000Y-101600000D03*
X177800000Y-104140000D03*
X177800000Y-106680000D03*
X177800000Y-109220000D03*
X177800000Y-111760000D03*
X177800000Y-114300000D03*
X177800000Y-116840000D03*
X177800000Y-119380000D03*
X177800000Y-121920000D03*
X177800000Y-124460000D03*
X177800000Y-127000000D03*
X177800000Y-129540000D03*
X177800000Y-132080000D03*
X177800000Y-134620000D03*
X177800000Y-137160000D03*
X177800000Y-139700000D03*
%TO.C,U24*%
X182880000Y-154940000D03*
X182880000Y-157480000D03*
X182880000Y-160020000D03*
X182880000Y-162560000D03*
X182880000Y-165100000D03*
X182880000Y-167640000D03*
X182880000Y-170180000D03*
%TO.C,U41*%
X182880000Y-175260000D03*
X182880000Y-177800000D03*
X182880000Y-180340000D03*
X182880000Y-182880000D03*
X182880000Y-185420000D03*
X182880000Y-187960000D03*
X182880000Y-190500000D03*
%TO.C,C15*%
X185928000Y-146812000D03*
X185928000Y-151812000D03*
%TO.C,C25*%
X187960000Y-87376000D03*
%TO.C,U9*%
X190500000Y-53340000D03*
X190500000Y-55880000D03*
X190500000Y-58420000D03*
X190500000Y-60960000D03*
X190500000Y-63500000D03*
X190500000Y-66040000D03*
X190500000Y-68580000D03*
X190500000Y-71120000D03*
X190500000Y-73660000D03*
X190500000Y-76200000D03*
%TO.C,U16*%
X190500000Y-162560000D03*
X190500000Y-165100000D03*
X190500000Y-167640000D03*
X190500000Y-170180000D03*
X190500000Y-172720000D03*
X190500000Y-175260000D03*
X190500000Y-177800000D03*
%TO.C,C25*%
X192960000Y-87376000D03*
%TO.C,U1*%
X193040000Y-91440000D03*
X193040000Y-93980000D03*
X193040000Y-96520000D03*
X193040000Y-99060000D03*
X193040000Y-101600000D03*
X193040000Y-104140000D03*
X193040000Y-106680000D03*
X193040000Y-109220000D03*
X193040000Y-111760000D03*
X193040000Y-114300000D03*
X193040000Y-116840000D03*
X193040000Y-119380000D03*
X193040000Y-121920000D03*
X193040000Y-124460000D03*
X193040000Y-127000000D03*
X193040000Y-129540000D03*
X193040000Y-132080000D03*
X193040000Y-134620000D03*
X193040000Y-137160000D03*
X193040000Y-139700000D03*
%TO.C,U9*%
X198120000Y-53340000D03*
X198120000Y-55880000D03*
X198120000Y-58420000D03*
X198120000Y-60960000D03*
X198120000Y-63500000D03*
X198120000Y-66040000D03*
X198120000Y-68580000D03*
X198120000Y-71120000D03*
X198120000Y-73660000D03*
X198120000Y-76200000D03*
%TO.C,U5*%
X198120000Y-91440000D03*
X198120000Y-93980000D03*
X198120000Y-96520000D03*
X198120000Y-99060000D03*
X198120000Y-101600000D03*
X198120000Y-104140000D03*
X198120000Y-106680000D03*
X198120000Y-109220000D03*
X198120000Y-111760000D03*
X198120000Y-114300000D03*
X198120000Y-116840000D03*
X198120000Y-119380000D03*
X198120000Y-121920000D03*
X198120000Y-124460000D03*
%TO.C,U14*%
X198120000Y-132080000D03*
X198120000Y-134620000D03*
X198120000Y-137160000D03*
X198120000Y-139700000D03*
X198120000Y-142240000D03*
X198120000Y-144780000D03*
X198120000Y-147320000D03*
X198120000Y-149860000D03*
X198120000Y-152400000D03*
X198120000Y-154940000D03*
%TO.C,U16*%
X198120000Y-162560000D03*
X198120000Y-165100000D03*
X198120000Y-167640000D03*
X198120000Y-170180000D03*
X198120000Y-172720000D03*
X198120000Y-175260000D03*
X198120000Y-177800000D03*
%TO.C,C20*%
X200192000Y-158496000D03*
X205192000Y-158496000D03*
%TO.C,U43*%
X205740000Y-55880000D03*
X205740000Y-71120000D03*
%TO.C,U5*%
X205740000Y-91440000D03*
X205740000Y-93980000D03*
X205740000Y-96520000D03*
X205740000Y-99060000D03*
X205740000Y-101600000D03*
X205740000Y-104140000D03*
X205740000Y-106680000D03*
X205740000Y-109220000D03*
X205740000Y-111760000D03*
X205740000Y-114300000D03*
X205740000Y-116840000D03*
X205740000Y-119380000D03*
X205740000Y-121920000D03*
X205740000Y-124460000D03*
%TO.C,U14*%
X205740000Y-132080000D03*
X205740000Y-134620000D03*
X205740000Y-137160000D03*
X205740000Y-139700000D03*
X205740000Y-142240000D03*
X205740000Y-144780000D03*
X205740000Y-147320000D03*
X205740000Y-149860000D03*
X205740000Y-152400000D03*
X205740000Y-154940000D03*
%TO.C,U15*%
X205740000Y-162560000D03*
X205740000Y-165100000D03*
X205740000Y-167640000D03*
X205740000Y-170180000D03*
X205740000Y-172720000D03*
X205740000Y-175260000D03*
X205740000Y-177800000D03*
%TO.C,U44*%
X208280000Y-43180000D03*
X208280000Y-50800000D03*
%TO.C,U43*%
X208280000Y-55880000D03*
X208280000Y-71120000D03*
%TO.C,C14*%
X208280000Y-86360000D03*
%TO.C,RN6*%
X210820000Y-38400000D03*
%TO.C,U44*%
X210820000Y-43180000D03*
X210820000Y-50800000D03*
%TO.C,U43*%
X210820000Y-55880000D03*
X210820000Y-71120000D03*
%TO.C,U4*%
X210820000Y-91440000D03*
X210820000Y-93980000D03*
X210820000Y-96520000D03*
X210820000Y-99060000D03*
X210820000Y-101600000D03*
X210820000Y-104140000D03*
X210820000Y-106680000D03*
X210820000Y-109220000D03*
X210820000Y-111760000D03*
X210820000Y-114300000D03*
X210820000Y-116840000D03*
X210820000Y-119380000D03*
X210820000Y-121920000D03*
X210820000Y-124460000D03*
%TO.C,U13*%
X210820000Y-132080000D03*
X210820000Y-134620000D03*
X210820000Y-137160000D03*
X210820000Y-139700000D03*
X210820000Y-142240000D03*
X210820000Y-144780000D03*
X210820000Y-147320000D03*
X210820000Y-149860000D03*
X210820000Y-152400000D03*
X210820000Y-154940000D03*
%TO.C,C19*%
X212892000Y-159004000D03*
%TO.C,C14*%
X213280000Y-86360000D03*
%TO.C,RN6*%
X213360000Y-38400000D03*
%TO.C,U44*%
X213360000Y-43180000D03*
X213360000Y-50800000D03*
%TO.C,U43*%
X213360000Y-55880000D03*
X213360000Y-71120000D03*
%TO.C,U15*%
X213360000Y-162560000D03*
X213360000Y-165100000D03*
X213360000Y-167640000D03*
X213360000Y-170180000D03*
X213360000Y-172720000D03*
X213360000Y-175260000D03*
X213360000Y-177800000D03*
%TO.C,RN6*%
X215900000Y-38400000D03*
%TO.C,U44*%
X215900000Y-43180000D03*
X215900000Y-50800000D03*
%TO.C,U43*%
X215900000Y-55880000D03*
X215900000Y-71120000D03*
%TO.C,C19*%
X217892000Y-159004000D03*
%TO.C,RN6*%
X218440000Y-38400000D03*
%TO.C,U44*%
X218440000Y-43180000D03*
X218440000Y-50800000D03*
%TO.C,U43*%
X218440000Y-55880000D03*
X218440000Y-71120000D03*
%TO.C,U4*%
X218440000Y-91440000D03*
X218440000Y-93980000D03*
X218440000Y-96520000D03*
X218440000Y-99060000D03*
X218440000Y-101600000D03*
X218440000Y-104140000D03*
X218440000Y-106680000D03*
X218440000Y-109220000D03*
X218440000Y-111760000D03*
X218440000Y-114300000D03*
X218440000Y-116840000D03*
X218440000Y-119380000D03*
X218440000Y-121920000D03*
X218440000Y-124460000D03*
%TO.C,U13*%
X218440000Y-132080000D03*
X218440000Y-134620000D03*
X218440000Y-137160000D03*
X218440000Y-139700000D03*
X218440000Y-142240000D03*
X218440000Y-144780000D03*
X218440000Y-147320000D03*
X218440000Y-149860000D03*
X218440000Y-152400000D03*
X218440000Y-154940000D03*
%TO.C,RN6*%
X220980000Y-38400000D03*
%TO.C,U44*%
X220980000Y-43180000D03*
X220980000Y-50800000D03*
%TO.C,U43*%
X220980000Y-55880000D03*
X220980000Y-71120000D03*
%TO.C,U37*%
X220980000Y-162560000D03*
X220980000Y-165100000D03*
X220980000Y-167640000D03*
X220980000Y-170180000D03*
X220980000Y-172720000D03*
X220980000Y-175260000D03*
X220980000Y-177800000D03*
%TO.C,RN6*%
X223520000Y-38400000D03*
%TO.C,U44*%
X223520000Y-43180000D03*
X223520000Y-50800000D03*
%TO.C,U43*%
X223520000Y-55880000D03*
X223520000Y-71120000D03*
%TO.C,U36*%
X223520000Y-91440000D03*
X223520000Y-93980000D03*
X223520000Y-96520000D03*
X223520000Y-99060000D03*
X223520000Y-101600000D03*
X223520000Y-104140000D03*
X223520000Y-106680000D03*
X223520000Y-109220000D03*
X223520000Y-111760000D03*
X223520000Y-114300000D03*
%TO.C,U2*%
X223520000Y-119380000D03*
X223520000Y-121920000D03*
X223520000Y-124460000D03*
X223520000Y-127000000D03*
X223520000Y-129540000D03*
X223520000Y-132080000D03*
X223520000Y-134620000D03*
X223520000Y-137160000D03*
X223520000Y-139700000D03*
X223520000Y-142240000D03*
X223520000Y-144780000D03*
X223520000Y-147320000D03*
X223520000Y-149860000D03*
X223520000Y-152400000D03*
X223520000Y-154940000D03*
X223520000Y-157480000D03*
%TO.C,RN6*%
X226060000Y-38400000D03*
%TO.C,U44*%
X226060000Y-43180000D03*
X226060000Y-50800000D03*
%TO.C,U43*%
X226060000Y-55880000D03*
X226060000Y-71120000D03*
%TO.C,C26*%
X226568000Y-86360000D03*
%TO.C,RN6*%
X228600000Y-38400000D03*
%TO.C,U44*%
X228600000Y-43180000D03*
X228600000Y-50800000D03*
%TO.C,U43*%
X228600000Y-55880000D03*
X228600000Y-71120000D03*
%TO.C,U37*%
X228600000Y-162560000D03*
X228600000Y-165100000D03*
X228600000Y-167640000D03*
X228600000Y-170180000D03*
X228600000Y-172720000D03*
X228600000Y-175260000D03*
X228600000Y-177800000D03*
%TO.C,RN6*%
X231140000Y-38400000D03*
%TO.C,U44*%
X231140000Y-43180000D03*
X231140000Y-50800000D03*
%TO.C,U43*%
X231140000Y-55880000D03*
X231140000Y-71120000D03*
%TO.C,U36*%
X231140000Y-91440000D03*
X231140000Y-93980000D03*
X231140000Y-96520000D03*
X231140000Y-99060000D03*
X231140000Y-101600000D03*
X231140000Y-104140000D03*
X231140000Y-106680000D03*
X231140000Y-109220000D03*
X231140000Y-111760000D03*
X231140000Y-114300000D03*
%TO.C,C26*%
X231568000Y-86360000D03*
%TO.C,U43*%
X233680000Y-55880000D03*
X233680000Y-71120000D03*
%TO.C,C4*%
X236220000Y-50800000D03*
%TO.C,U43*%
X236220000Y-55880000D03*
X236220000Y-71120000D03*
%TO.C,R4*%
X236220000Y-91440000D03*
%TO.C,U39*%
X236220000Y-96520000D03*
X236220000Y-99060000D03*
X236220000Y-101600000D03*
X236220000Y-104140000D03*
X236220000Y-106680000D03*
X236220000Y-109220000D03*
X236220000Y-111760000D03*
X236220000Y-114300000D03*
%TO.C,U43*%
X238760000Y-55880000D03*
X238760000Y-71120000D03*
%TO.C,U2*%
X238760000Y-119380000D03*
X238760000Y-121920000D03*
X238760000Y-124460000D03*
X238760000Y-127000000D03*
X238760000Y-129540000D03*
X238760000Y-132080000D03*
X238760000Y-134620000D03*
X238760000Y-137160000D03*
X238760000Y-139700000D03*
X238760000Y-142240000D03*
X238760000Y-144780000D03*
X238760000Y-147320000D03*
X238760000Y-149860000D03*
X238760000Y-152400000D03*
X238760000Y-154940000D03*
X238760000Y-157480000D03*
%TO.C,C4*%
X241220000Y-50800000D03*
%TO.C,U43*%
X241300000Y-55880000D03*
X241300000Y-71120000D03*
%TO.C,U3*%
X242570000Y-119380000D03*
X242570000Y-121920000D03*
X242570000Y-124460000D03*
X242570000Y-127000000D03*
X242570000Y-129540000D03*
X242570000Y-132080000D03*
X242570000Y-134620000D03*
X242570000Y-137160000D03*
X242570000Y-139700000D03*
X242570000Y-142240000D03*
X242570000Y-144780000D03*
X242570000Y-147320000D03*
X242570000Y-149860000D03*
X242570000Y-152400000D03*
X242570000Y-154940000D03*
X242570000Y-157480000D03*
%TO.C,U43*%
X243840000Y-55880000D03*
X243840000Y-71120000D03*
%TO.C,R4*%
X243840000Y-91440000D03*
%TO.C,U39*%
X243840000Y-96520000D03*
X243840000Y-99060000D03*
X243840000Y-101600000D03*
X243840000Y-104140000D03*
X243840000Y-106680000D03*
X243840000Y-109220000D03*
X243840000Y-111760000D03*
X243840000Y-114300000D03*
%TO.C,U43*%
X246380000Y-55880000D03*
X246380000Y-71120000D03*
%TO.C,C32*%
X248920000Y-45720000D03*
%TO.C,Y1*%
X248920000Y-50800000D03*
%TO.C,U43*%
X248920000Y-55880000D03*
X248920000Y-71120000D03*
%TO.C,C13*%
X248920000Y-83820000D03*
X248920000Y-88820000D03*
%TO.C,RN3*%
X248920000Y-99060000D03*
X248920000Y-101600000D03*
X248920000Y-104140000D03*
X248920000Y-106680000D03*
X248920000Y-109220000D03*
X248920000Y-111760000D03*
X248920000Y-114300000D03*
%TO.C,C32*%
X251420000Y-45720000D03*
%TO.C,U43*%
X251460000Y-55880000D03*
X251460000Y-71120000D03*
%TO.C,RN5*%
X251460000Y-76200000D03*
%TO.C,Y1*%
X253820000Y-50800000D03*
%TO.C,U43*%
X254000000Y-55880000D03*
X254000000Y-71120000D03*
%TO.C,RN5*%
X254000000Y-76200000D03*
%TO.C,C31*%
X254040000Y-45720000D03*
X256540000Y-45720000D03*
%TO.C,RN5*%
X256540000Y-76200000D03*
%TO.C,RN3*%
X256540000Y-99060000D03*
X256540000Y-101600000D03*
X256540000Y-104140000D03*
X256540000Y-106680000D03*
X256540000Y-109220000D03*
X256540000Y-111760000D03*
X256540000Y-114300000D03*
%TO.C,U3*%
X257810000Y-119380000D03*
X257810000Y-121920000D03*
X257810000Y-124460000D03*
X257810000Y-127000000D03*
X257810000Y-129540000D03*
X257810000Y-132080000D03*
X257810000Y-134620000D03*
X257810000Y-137160000D03*
X257810000Y-139700000D03*
X257810000Y-142240000D03*
X257810000Y-144780000D03*
X257810000Y-147320000D03*
X257810000Y-149860000D03*
X257810000Y-152400000D03*
X257810000Y-154940000D03*
X257810000Y-157480000D03*
%TO.C,U42*%
X258572000Y-55880000D03*
X258572000Y-58420000D03*
X258572000Y-60960000D03*
X258572000Y-63500000D03*
X258572000Y-66040000D03*
X258572000Y-68580000D03*
X258572000Y-71120000D03*
%TO.C,RN5*%
X259080000Y-76200000D03*
X261620000Y-76200000D03*
%TO.C,J4*%
X264070000Y-34080000D03*
X264070000Y-36580000D03*
X264070000Y-41080000D03*
X264070000Y-43580000D03*
%TO.C,RN5*%
X264160000Y-76200000D03*
%TO.C,RN4*%
X264160000Y-119380000D03*
X264160000Y-121920000D03*
X264160000Y-124460000D03*
X264160000Y-127000000D03*
X264160000Y-129540000D03*
X264160000Y-132080000D03*
X264160000Y-134620000D03*
%TO.C,U38*%
X264160000Y-139700000D03*
X264160000Y-142240000D03*
X264160000Y-144780000D03*
X264160000Y-147320000D03*
X264160000Y-149860000D03*
X264160000Y-152400000D03*
X264160000Y-154940000D03*
X264160000Y-157480000D03*
%TO.C,J4*%
X266170000Y-34080000D03*
X266170000Y-41080000D03*
%TO.C,U42*%
X266192000Y-55880000D03*
X266192000Y-58420000D03*
X266192000Y-60960000D03*
X266192000Y-63500000D03*
X266192000Y-66040000D03*
X266192000Y-68580000D03*
X266192000Y-71120000D03*
%TO.C,RN5*%
X266700000Y-76200000D03*
%TO.C,J4*%
X268770000Y-34080000D03*
X268770000Y-41080000D03*
%TO.C,RN5*%
X269240000Y-76200000D03*
%TO.C,J4*%
X270870000Y-34080000D03*
X270870000Y-36580000D03*
X270870000Y-41080000D03*
X270870000Y-43580000D03*
%TO.C,RN4*%
X271780000Y-119380000D03*
X271780000Y-121920000D03*
X271780000Y-124460000D03*
X271780000Y-127000000D03*
X271780000Y-129540000D03*
X271780000Y-132080000D03*
X271780000Y-134620000D03*
%TO.C,U38*%
X271780000Y-139700000D03*
X271780000Y-142240000D03*
X271780000Y-144780000D03*
X271780000Y-147320000D03*
X271780000Y-149860000D03*
X271780000Y-152400000D03*
X271780000Y-154940000D03*
X271780000Y-157480000D03*
D14*
%TO.C,PS1*%
X139700000Y-36830000D03*
X139700000Y-39370000D03*
X139700000Y-41910000D03*
X139700000Y-44450000D03*
X139700000Y-49530000D03*
X139700000Y-52070000D03*
X139700000Y-54610000D03*
D15*
%TO.C,D1*%
X236220000Y-83820000D03*
X236220000Y-86360000D03*
D16*
%TO.C,C33*%
X43180000Y-55880000D03*
X43180000Y-60880000D03*
%TO.C,J3*%
X43180000Y-132080000D03*
X43180000Y-134620000D03*
X43180000Y-137160000D03*
X43180000Y-139700000D03*
X43180000Y-142240000D03*
%TO.C,C35*%
X43180000Y-152400000D03*
%TO.C,J3*%
X45720000Y-132080000D03*
X45720000Y-134620000D03*
X45720000Y-137160000D03*
X45720000Y-139700000D03*
X45720000Y-142240000D03*
%TO.C,C35*%
X48180000Y-152400000D03*
%TO.C,C21*%
X111760000Y-177800000D03*
X116760000Y-177800000D03*
%TO.C,C30*%
X157480000Y-35640000D03*
X157480000Y-40640000D03*
%TO.C,J9*%
X160020000Y-81280000D03*
X160020000Y-83820000D03*
X162560000Y-81280000D03*
X162560000Y-83820000D03*
X165100000Y-81280000D03*
X165100000Y-83820000D03*
X167640000Y-81280000D03*
X167640000Y-83820000D03*
D17*
%TO.C,J1*%
X168020000Y-36020000D03*
D16*
%TO.C,J9*%
X170180000Y-81280000D03*
X170180000Y-83820000D03*
D18*
%TO.C,J1*%
X172720000Y-33020000D03*
D19*
X172720000Y-39220000D03*
D16*
%TO.C,J9*%
X172720000Y-81280000D03*
X172720000Y-83820000D03*
X175260000Y-81280000D03*
X175260000Y-83820000D03*
%TO.C,C12*%
X175340000Y-146812000D03*
%TO.C,J9*%
X177800000Y-81280000D03*
X177800000Y-83820000D03*
X180340000Y-81280000D03*
X180340000Y-83820000D03*
%TO.C,C12*%
X180340000Y-146812000D03*
%TO.C,J9*%
X182880000Y-81280000D03*
X182880000Y-83820000D03*
X185420000Y-81280000D03*
X185420000Y-83820000D03*
X187960000Y-81280000D03*
X187960000Y-83820000D03*
X190500000Y-81280000D03*
X190500000Y-83820000D03*
X193040000Y-81280000D03*
X193040000Y-83820000D03*
%TO.C,J2*%
X208280000Y-76200000D03*
X208280000Y-78740000D03*
X210820000Y-76200000D03*
X210820000Y-78740000D03*
X213360000Y-76200000D03*
X213360000Y-78740000D03*
X215900000Y-76200000D03*
X215900000Y-78740000D03*
%TO.C,J6*%
X217780000Y-33320000D03*
%TO.C,J2*%
X218440000Y-76200000D03*
X218440000Y-78740000D03*
%TO.C,J6*%
X219165000Y-30480000D03*
X220550000Y-33320000D03*
%TO.C,J2*%
X220980000Y-76200000D03*
X220980000Y-78740000D03*
%TO.C,J6*%
X221935000Y-30480000D03*
X223320000Y-33320000D03*
%TO.C,J2*%
X223520000Y-76200000D03*
X223520000Y-78740000D03*
%TO.C,J6*%
X224705000Y-30480000D03*
%TO.C,J2*%
X226060000Y-76200000D03*
X226060000Y-78740000D03*
%TO.C,J6*%
X226090000Y-33320000D03*
X227475000Y-30480000D03*
%TO.C,J2*%
X228600000Y-76200000D03*
X228600000Y-78740000D03*
%TO.C,J6*%
X228860000Y-33320000D03*
%TO.C,J2*%
X231140000Y-76200000D03*
X231140000Y-78740000D03*
X233680000Y-76200000D03*
X233680000Y-78740000D03*
X236220000Y-76200000D03*
X236220000Y-78740000D03*
D20*
%TO.C,J7*%
X252000000Y-30620000D03*
X254000000Y-33020000D03*
X254000000Y-38520000D03*
D16*
%TO.C,C34*%
X259080000Y-83820000D03*
X259080000Y-88820000D03*
D21*
%TO.C,J4*%
X260620000Y-31230000D03*
X260620000Y-41080000D03*
D16*
%TO.C,U40*%
X261620000Y-96520000D03*
X261620000Y-99060000D03*
X261620000Y-101600000D03*
X261620000Y-104140000D03*
X261620000Y-106680000D03*
X261620000Y-109220000D03*
X261620000Y-111760000D03*
X261620000Y-114300000D03*
D18*
%TO.C,J4*%
X267470000Y-30430000D03*
D21*
X274320000Y-31230000D03*
X274320000Y-41080000D03*
D16*
%TO.C,U40*%
X274320000Y-96520000D03*
X274320000Y-99060000D03*
X274320000Y-101600000D03*
X274320000Y-104140000D03*
X274320000Y-106680000D03*
X274320000Y-109220000D03*
X274320000Y-111760000D03*
X274320000Y-114300000D03*
D22*
%TO.C,SW2*%
X63500000Y-187960000D03*
X63500000Y-192460000D03*
X70000000Y-187960000D03*
X70000000Y-192460000D03*
%TO.C,U32*%
X141224000Y-59944000D03*
X143764000Y-59944000D03*
X146304000Y-59944000D03*
D23*
%TO.C,J5*%
X271780000Y-83820000D03*
X271780000Y-88900000D03*
D24*
%TO.C,J8*%
X186944000Y-44661300D03*
X191008000Y-42121300D03*
X191008000Y-44661300D03*
X195072000Y-42121300D03*
X195072000Y-44661300D03*
X199136000Y-42121300D03*
X199136000Y-44661300D03*
D25*
%TO.C,H4*%
X48260000Y-190640000D03*
%TO.C,H1*%
X68580000Y-35560000D03*
%TO.C,H5*%
X114300000Y-35560000D03*
%TO.C,H3*%
X114300000Y-190500000D03*
%TO.C,J6*%
X210820000Y-33020000D03*
X235820000Y-33020000D03*
%TO.C,H2*%
X271780000Y-58420000D03*
%TO.C,H6*%
X271780000Y-190500000D03*
D26*
%TO.C,H7*%
X153320000Y-55740000D03*
%TO.C,H9*%
X153320000Y-77240000D03*
%TO.C,H8*%
X242820000Y-45740000D03*
%TO.C,H10*%
X242820000Y-77240000D03*
D27*
%TO.C,J8*%
X183134000Y-32393100D03*
X202946000Y-32393100D03*
M02*
